<svg width="16" height="16" viewBox="0 0 16 16" fill="none" xmlns="http://www.w3.org/2000/svg">
<path d="M13.1766 0H2.05231C0.918676 0 0 0.918654 0 2.05188V13.1763C0 14.3095 0.918677 15.2282 2.05193 15.2282H7.53829L7.5476 9.78631H6.13382C5.95016 9.78631 5.80115 9.63767 5.8004 9.45401L5.7937 7.69978C5.79295 7.51501 5.94271 7.36488 6.12749 7.36488H7.53866V5.66988C7.53866 3.70293 8.74009 2.63191 10.4947 2.63191H11.9346C12.119 2.63191 12.268 2.78129 12.268 2.9657V4.44463C12.268 4.62866 12.1186 4.77804 11.9346 4.77842L11.0509 4.77879C10.0969 4.77879 9.91172 5.23216 9.91172 5.89786V7.36525H12.0087C12.2084 7.36525 12.3634 7.53959 12.3399 7.73815L12.132 9.49239C12.1123 9.6604 11.9696 9.78668 11.8009 9.78668H9.92141L9.9121 15.2286H13.1766C14.3099 15.2286 15.2286 14.3099 15.2286 13.1767V2.05188C15.2286 0.918654 14.3099 0 13.1766 0Z" fill="white"/>
</svg>
