<svg width="16" height="16" viewBox="0 0 16 16" fill="none" xmlns="http://www.w3.org/2000/svg">
<g clip-path="url(#clip0_281_70)">
<path d="M11.4635 0H5.3083C2.80664 0 0.771484 2.03516 0.771484 4.53682V10.692C0.771484 13.1937 2.80664 15.2288 5.3083 15.2288H11.4635C13.9652 15.2288 16.0003 13.1937 16.0003 10.692V4.53682C16.0001 2.03516 13.9649 0 11.4635 0ZM14.4682 10.692C14.4682 12.3513 13.1228 13.6967 11.4635 13.6967H5.3083C3.649 13.6967 2.30365 12.3513 2.30365 10.692V4.53682C2.30365 2.87724 3.649 1.53217 5.3083 1.53217H11.4635C13.1228 1.53217 14.4682 2.87752 14.4682 4.53682V10.692Z" fill="white"/>
<path d="M8.38603 3.67578C6.21407 3.67578 4.44727 5.44259 4.44727 7.61454C4.44727 9.7865 6.21407 11.5533 8.38603 11.5533C10.558 11.5533 12.3248 9.7865 12.3248 7.61454C12.3248 5.44259 10.5577 3.67578 8.38603 3.67578ZM8.38603 10.0211C7.05671 10.0211 5.97944 8.94358 5.97944 7.61454C5.97944 6.2855 7.05699 5.20795 8.38603 5.20795C9.71535 5.20795 10.7926 6.2855 10.7926 7.61454C10.7926 8.94358 9.71507 10.0211 8.38603 10.0211Z" fill="white"/>
<path d="M12.3325 4.64881C12.8537 4.64881 13.2762 4.22626 13.2762 3.70502C13.2762 3.18378 12.8537 2.76123 12.3325 2.76123C11.8112 2.76123 11.3887 3.18378 11.3887 3.70502C11.3887 4.22626 11.8112 4.64881 12.3325 4.64881Z" fill="white"/>
</g>
<defs>
<clipPath id="clip0_281_70">
<rect width="15.2286" height="15.2286" fill="white" transform="translate(0.771484)"/>
</clipPath>
</defs>
</svg>
