<svg width="303" height="23" viewBox="0 0 303 23" fill="none" xmlns="http://www.w3.org/2000/svg">
<g clip-path="url(#clip0_281_89)">
<path d="M303.001 0L301.417 5.97009L286.392 16.771H298.555L296.912 23H275.945L277.588 16.771L292.598 5.9405H280.807L282.377 0H303.001Z" fill="white"/>
<path d="M279.886 0L273.805 23H266.68L272.761 0H279.886Z" fill="white"/>
<path d="M261.57 5.9405H253.722L252.905 9.01061H260.753L261.57 5.9405ZM259.555 13.6121H251.707L250.89 16.7118H258.738L259.555 13.6121ZM269.265 2.71502C269.265 3.20328 269.17 3.80991 268.98 4.5349C268.389 6.81344 268.017 8.11547 267.849 8.43358C267.279 9.66902 266.345 10.5494 265.045 11.082C265.994 11.5925 266.462 12.3692 266.462 13.4124C266.462 13.8414 266.389 14.3297 266.243 14.8845L265.454 17.8215C264.972 19.5896 264.279 20.8768 263.374 21.6906C262.41 22.5635 261.037 23 259.278 23H242.188L248.269 0H265.418C267.98 0 269.265 0.902541 269.265 2.71502Z" fill="white"/>
<path d="M225.272 5.68904H217.453L216.541 9.20303H224.36L225.272 5.68904ZM233.923 7.36574e-05L227.835 23.0001H220.804L223.235 13.7971H215.417L212.985 23.0001H205.955L210.525 5.68164C211.117 3.44748 212.131 1.90133 213.584 1.05057C214.803 0.347774 216.628 -0.00732422 219.067 -0.00732422H233.923V7.36574e-05Z" fill="white"/>
<path d="M209.706 0L200.281 9.01061C204.063 9.01061 205.954 10.4088 205.954 13.1978C205.954 13.8784 205.837 14.6552 205.604 15.5281L203.618 23.0074H196.587L199.077 13.6121H191.229L188.739 23.0074H181.709L187.798 0H194.828L192.433 9.01061H193.251L202.676 0H209.706Z" fill="white"/>
<path d="M185.052 0L178.971 23H171.846L177.927 0H185.052Z" fill="white"/>
<path d="M175.876 0L174.306 5.9405H167.363L162.859 23H155.734L160.238 5.9405H153.303L154.88 0H175.876Z" fill="white"/>
<path d="M152.931 0L146.842 23H138.834L134.833 11.2152L131.708 23H124.934L131.015 0H139.024L143.032 11.7922L146.149 0H152.931Z" fill="white"/>
<path d="M119.824 5.68904H112.005L111.092 9.20303H118.911L119.824 5.68904ZM128.365 7.36574e-05L122.284 23.0001H115.254L117.685 13.7971H109.866L107.435 23.0001H100.404L104.974 5.68164C105.566 3.44748 106.581 1.90133 108.033 1.05057C109.253 0.347774 111.078 -0.00732422 113.516 -0.00732422H128.365V7.36574e-05Z" fill="white"/>
<path d="M100.149 16.771L98.5133 23H80.3496L86.4382 0H93.5635L89.1175 16.771H100.149Z" fill="white"/>
<path d="M84.4813 0L82.9044 5.9405H75.969L71.4573 23H64.332L68.8437 5.9405H61.9082L63.4851 0H84.4813Z" fill="white"/>
<path d="M52.9872 5.68897H45.1683L44.2558 9.20296H52.0746L52.9872 5.68897ZM61.5288 0L55.4401 23H48.4098L50.8408 13.797H43.022L40.5909 23H33.5605L38.1307 5.68157C38.722 3.44741 39.7368 1.90125 41.1896 1.0505C42.4161 0.355098 44.2412 0 46.6795 0H61.5288Z" fill="white"/>
<path d="M239.975 16.6157L238.274 23.0001H231.74L233.441 16.6157H239.975Z" fill="#01A0C6"/>
<path fill-rule="evenodd" clip-rule="evenodd" d="M2.75229 23.0001L0.890661 20.2851L2.75229 23.0001ZM13.8125 0.0371094H8.12546C7.37351 0.0371094 6.57775 0.658531 6.35144 1.42791L0 23.0001H2.75229H7.16179C7.91374 23.0001 8.7095 22.3787 8.93581 21.6093L14.7835 1.42051C15.0025 0.665929 14.5645 0.0371094 13.8125 0.0371094Z" fill="#01A0C6"/>
<path fill-rule="evenodd" clip-rule="evenodd" d="M13.016 23.0001L11.1543 20.2851L13.016 23.0001ZM24.0762 0.0371094H18.3891C17.6372 0.0371094 16.8414 0.658531 16.6151 1.42791L10.2637 23.0075H13.016H17.4255C18.1774 23.0075 18.9732 22.3861 19.1995 21.6167L25.0472 1.42791C25.2662 0.665929 24.8282 0.0371094 24.0762 0.0371094Z" fill="white"/>
<path fill-rule="evenodd" clip-rule="evenodd" d="M23.2816 23.0001L21.42 20.2851L23.2816 23.0001ZM34.3418 0.0371094H28.6548C27.9028 0.0371094 27.107 0.658531 26.8807 1.42791L20.5293 23.0075H23.2816H27.6911C28.443 23.0075 29.2388 22.3861 29.4651 21.6167L35.3128 1.42791C35.5318 0.665929 35.0938 0.0371094 34.3418 0.0371094Z" fill="#01A0C6"/>
</g>
<defs>
<clipPath id="clip0_281_89">
<rect width="303" height="23" fill="white"/>
</clipPath>
</defs>
</svg>
