<svg width="456" height="39" viewBox="0 0 456 39" fill="none" xmlns="http://www.w3.org/2000/svg">
<g clip-path="url(#clip0_182_407)">
<path d="M455.75 0.899658L453.07 10.6173L427.669 28.198H448.229L445.463 38.3371H409.998L412.764 28.198L438.153 10.5691H418.21L420.877 0.899658H455.75Z" fill="white"/>
<path d="M416.667 0.899658L406.369 38.3371H394.316L404.615 0.899658H416.667Z" fill="white"/>
<path d="M385.672 10.5691H372.398L371.014 15.5664H384.289L385.672 10.5691ZM382.264 23.0442H368.989L367.606 28.0897H380.881L382.264 23.0442ZM398.688 5.31894C398.688 6.11368 398.527 7.1011 398.206 8.28118C397.206 11.99 396.576 14.1093 396.292 14.6271C395.329 16.6381 393.748 18.071 391.55 18.938C393.155 19.7689 393.946 21.0333 393.946 22.7311C393.946 23.4296 393.822 24.2243 393.575 25.1274L392.242 29.908C391.427 32.7859 390.254 34.8811 388.722 36.2057C387.092 37.6266 384.771 38.3371 381.795 38.3371H352.887L363.173 0.899658H392.18C396.527 0.899658 398.688 2.36874 398.688 5.31894Z" fill="white"/>
<path d="M324.286 10.1476H311.061L309.517 15.8674H322.743L324.286 10.1476ZM338.907 0.899658L328.608 38.3371H316.717L320.829 23.3573H307.603L303.491 38.3371H291.6L299.33 10.1476C300.33 6.51106 302.047 3.99436 304.504 2.60957C306.566 1.46561 309.653 0.899658 313.778 0.899658H338.907Z" fill="white"/>
<path d="M297.947 0.899658L282.005 15.5664C288.401 15.5664 291.6 17.8422 291.6 22.3819C291.6 23.4898 291.402 24.7541 291.007 26.175L287.648 38.3491H275.756L279.967 23.0563H266.692L262.482 38.3491H250.59L260.876 0.9117H272.768L268.718 15.5784H270.101L286.043 0.9117H297.947V0.899658Z" fill="white"/>
<path d="M256.245 0.899658L245.958 38.3371H233.906L244.193 0.899658H256.245Z" fill="white"/>
<path d="M240.737 0.899658L238.069 10.5691H226.338L218.707 38.3371H206.654L214.286 10.5691H202.555L205.21 0.899658H240.737Z" fill="white"/>
<path d="M201.912 0.899658L191.613 38.3371H178.066L171.299 19.1427L166.014 38.3371H154.555L164.841 0.899658H178.387L185.167 20.082L190.44 0.899658H201.912Z" fill="white"/>
<path d="M145.911 10.1476H132.686L131.142 15.8674H144.368L145.911 10.1476ZM160.371 0.899658L150.085 38.3371H138.193L142.305 23.3573H129.08L124.968 38.3371H113.076L120.806 10.1476C121.807 6.51106 123.523 3.99436 125.98 2.60957C128.043 1.46561 131.13 0.899658 135.254 0.899658H160.371Z" fill="white"/>
<path d="M112.632 28.198L109.866 38.3371H79.1426L89.4413 0.899658H101.494L93.9732 28.198H112.632Z" fill="white"/>
<path d="M86.1311 0.899658L83.4638 10.5691H71.7326L64.1135 38.3371H52.0613L59.6804 10.5691H47.9492L50.6165 0.899658H86.1311Z" fill="white"/>
<path d="M32.8596 10.1476H19.6343L18.0907 15.8674H31.316L32.8596 10.1476ZM47.3075 0.899658L37.0211 38.3371H25.1294L29.2415 23.3573H16.0038L11.8917 38.3371H0L7.73022 10.1476C8.73045 6.51106 10.4469 3.99436 12.9043 2.60957C14.9665 1.46561 18.0537 0.899658 22.1781 0.899658H47.3075Z" fill="white"/>
<path d="M349.144 27.9331L346.267 38.3371H335.215L338.104 27.9331H349.144Z" fill="#01A0C6"/>
</g>
<defs>
<clipPath id="clip0_182_407">
<rect width="455.75" height="37.4495" fill="white" transform="translate(0 0.899658)"/>
</clipPath>
</defs>
</svg>
