<svg width="23" height="16" viewBox="0 0 23 16" fill="none" xmlns="http://www.w3.org/2000/svg">
<g clip-path="url(#clip0_281_75)">
<path d="M21.2836 1.30723C20.5014 0.378686 19.0572 0 16.2988 0H6.28631C3.46479 0 1.99604 0.403199 1.2168 1.39175C0.457031 2.35537 0.457031 3.77587 0.457031 5.74114V9.48743C0.457031 13.2954 1.3586 15.2286 6.28631 15.2286H16.2988C18.6907 15.2286 20.0163 14.8943 20.8735 14.0748C21.7534 13.235 22.1285 11.8627 22.1285 9.48743V5.74114C22.1285 3.66852 22.0696 2.23999 21.2836 1.30723ZM14.3703 8.1316L9.82358 10.5043C9.72199 10.5576 9.61067 10.5838 9.49977 10.5838C9.37406 10.5838 9.24877 10.5499 9.13745 10.4827C8.92836 10.3564 8.80053 10.1298 8.80053 9.88555V5.15536C8.80053 4.9115 8.92794 4.68539 9.13661 4.5586C9.34528 4.43181 9.60517 4.42335 9.82188 4.53577L14.3686 6.89326C14.5998 7.01329 14.7454 7.25166 14.7454 7.51158C14.7458 7.77235 14.601 8.01114 14.3703 8.1316Z" fill="white"/>
</g>
<defs>
<clipPath id="clip0_281_75">
<rect width="21.6714" height="15.2286" fill="white" transform="translate(0.457031)"/>
</clipPath>
</defs>
</svg>
